<?xml version="1.0" encoding="UTF-8"?>
<svg version="1.1" viewBox="0 0 1440 1600" width="360" height="400" xmlns="http://www.w3.org/2000/svg">
<path transform="translate(223,283)" d="m0 0h19l29 3 23 5 16 5 20 8 23 12 12 8 12 9 13 11 12 11 9 11 10 12 11 17 8 14 8 17 7 19 5 18 4 22 2 21v24l-4 31-5 20-9 26-10 21-11 18-14 19-14 15-9 9-11 9-13 10-18 11-17 9-23 9-21 6-20 4-17 2h-36l-28-4-23-6-17-6-18-8-18-10-13-9-14-11-16-15-9-9-9-11-13-18-12-21-8-18-8-24-5-22-3-15v-52l8-37 9-26 11-23 10-16 10-14 14-17 14-14 11-9 15-11 16-10 15-8 25-10 21-6 22-4z" fill="#428DD5"/>
<path transform="translate(704,1134)" d="m0 0h29l26 3 23 5 18 6 16 7 22 11 15 10 13 10 15 13 9 9 9 11 7 8 10 15 12 21 9 21 7 21 5 24 2 14 1 14v19l-2 24-5 25-6 20-9 21-8 16-12 19-10 13-9 10-7 8-7 7-11 9-13 10-19 12-16 8-16 7-22 7-26 6-12 2h-47l-30-6-27-8-25-11-21-12-18-13-11-10-8-7-9-9-9-11-10-13-13-21-11-23-7-19-6-25-4-26v-36l3-24 6-25 6-18 9-20 11-20 7-10 9-12 9-10 7-8 10-10 11-9 19-14 23-13 24-10 24-7 21-4z" fill="#428DD5"/>
<path transform="translate(695)" d="m0 0h49l30 6 24 7 21 9 21 11 16 11 14 11 13 12 9 9 9 11 10 13 11 18 10 19 9 24 6 22 4 25 1 14v19l-2 24-4 21-5 19-10 25-10 20-14 21-13 16-12 13-12 11-20 15-20 12-21 10-19 7-24 6-18 3-23 2h-17l-20-2-22-4-15-4-20-7-25-12-15-9-14-10-14-12-12-11-9-10-12-15-10-15-9-16-8-17-9-27-5-22-3-22v-36l3-23 6-25 7-21 8-18 11-19 12-17 8-10 11-12 13-13 14-11 16-11 21-12 21-9 19-6 25-6z" fill="#428DD5"/>
<path transform="translate(1195,283)" d="m0 0h19l23 2 26 5 19 6 16 6 22 11 17 11 12 9 11 9 4 3v2l4 2 8 8 9 11 11 14 13 21 12 25 9 27 5 22 3 27v29l-4 27-6 25-7 20-11 23-11 18-14 19-14 15-12 12-14 11-13 9-17 10-21 10-23 8-21 5-19 3-9 1h-35l-29-4-23-6-22-8-19-9-21-13-13-10-14-12-15-15-9-11-9-12-12-19-13-27-9-28-5-25-2-18v-32l3-24 6-26 7-20 9-20 9-16 11-16 14-17 7-8 9-9 11-9 16-12 20-12 16-8 20-8 22-6 21-4z" fill="#428DD5"/>
<path transform="translate(702,567)" d="m0 0h34l24 3 25 6 21 7 25 12 18 11 12 9 11 9 12 11 8 8 9 11 12 16 9 15 8 15 10 25 7 25 4 25 1 15v18l-2 25-5 25-5 16-9 24-10 19-14 21-13 16-7 8-8 7-10 10-19 14-20 12-21 10-22 8-25 6-21 3-12 1h-20l-29-3-23-5-24-8-18-8-23-13-15-11-11-9-26-26-10-13-10-15-10-18-9-20-7-22-5-22-3-22v-36l4-28 5-20 8-23 6-13 9-17 9-14 13-17 12-13 13-13 14-11 13-9 20-12 15-7 25-9 25-6z" fill="#428DD5"/>
<path transform="translate(227,850)" d="m0 0h12l24 2 22 4 19 5 19 7 23 11 19 12 13 10 13 11 17 17 11 14 8 11 12 20 9 19 8 22 6 24 3 21 1 14v23l-4 31-5 20-7 21-9 20-10 18-12 17-13 16-18 18-11 9-17 12-17 10-21 10-16 6-28 7-18 3-11 1h-34l-25-3-17-4-17-5-22-9-19-10-18-12-13-10-12-11-16-16-13-17-10-15-14-27-7-18-7-25-5-25v-52l8-37 7-21 10-22 9-16 11-16 11-14 9-9 5-6 8-7 9-8 18-13 15-9 16-8 14-6 18-6 26-6 17-2z" fill="#428DD5"/>
<path transform="translate(1199,850)" d="m0 0h12l24 2 23 4 21 6 16 6 16 7 17 10 16 11 10 8 12 11 16 16 13 17 9 14 10 17 10 24 7 23 5 25 2 19v30l-4 27-6 25-7 20-7 16-11 19-8 12-11 14-9 10-17 17-17 13-15 10-27 14-21 8-23 6-23 4-11 1h-34l-24-3-25-6-20-7-20-9-19-11-14-10-11-9-10-9-14-14-9-11-13-18-10-18-10-21-8-24-6-28-2-19v-31l3-25 6-25 7-21 8-18 12-21 10-14 11-14 8-8 5-6 8-7 9-8 18-13 19-11 21-10 17-6 22-6 18-3z" fill="#428DD5"/>
<path transform="translate(783,1014)" d="m0 0 5 2v2h-2l-2 5-8 3-19 4-28 3h-20l-3-3v-2l-3-1 1-2 3 1 8-1 1-1 18-1 7-1 1 7 6-1 4-4 9-4 5-2 11-1z" fill="#3883CD"/>
<path transform="translate(787,447)" d="m0 0 3 1 1 5-1 2-24 6-18 3-23 2h-17l-5-2v-3l6 3 1-3h18l3-1-5-1 2-2h6l13-4 5 1v2h-2v5l6-2 2-4h2v-2l14-4 10-1z" fill="#3883CD"/>
<path transform="translate(297,731)" d="m0 0h5l1 3-1 5-24 6-5 1h-8l2-6 5-4 8-2 14-2z" fill="#3983CE"/>
<path transform="translate(783,1014)" d="m0 0 5 2v2h-2l-2 5-8 3-19 4-13 1 5-5 9-5 8-3 11-1z" fill="#3983CE"/>
<path transform="translate(1271,730)" d="m0 0 5 1-1 3-4 6-21 5-5 1h-8l2-6 4-3 11-3 12-1z" fill="#3782CD"/>
<path transform="translate(253,738)" d="m0 0 4 1 1 5 5 1-1 2-12 2h-21l-3-1h-8l1-5 5 1h3l-1-2h6l1-1h6l4-2 6 1z" fill="#3883CE"/>
<path transform="translate(787,447)" d="m0 0 3 1 1 5-1 2-24 6-10 2h-5l5-4 2-4h2v-2l14-4 10-1z" fill="#3883CD"/>
<path transform="translate(1228,738)" d="m0 0 1 4v3h6v2l-13 2h-20l-4-1h-7v-3l4-2 2 2h4v-2l-3-1h6l1-1 12-2 4 1z" fill="#3883CE"/>
<path transform="translate(435,1189)" d="m0 0 2 1 1 5-9 15-10 14-8 10h-4v-6h3l1-4 3-1v-3h3v-2h2l-1-3 2-3h2v-4h2l1-3 3-6h2l1-5 3-1z" fill="#3883CD"/>
<path transform="translate(1251,1302)" d="m0 0 4 1-1 5 1 3-23 4h-13v-1l10-2h4l-1-3-2-2z" fill="#3883CE"/>
<path transform="translate(1198,1307)" d="m0 0h10l7 2 2 2v3l-3 2h-27l-4-2 11-1 1-5z" fill="#3782CD"/>
<path transform="translate(278,1302)" d="m0 0 5 1-1 5 2 2-6 2-11 2h-10l3-3v-2l-2-2 9-3 9-1z" fill="#3883CD"/>
<path transform="translate(440,610)" d="m0 0 3 2-2 7-2 3-2 7-5 9-4 1-2-2v-5l4-6 2-4h2l2-7z" fill="#3782CD"/>
<path transform="translate(228,1307)" d="m0 0 17 1v3h-2l-1 4-2 1h-11l-2-1v-2l-4 1v-2l-4-2 3-2z" fill="#3782CD"/>
<path transform="translate(919,339)" d="m0 0h2l1 3-4 8-5 9-5 6-2 5-3 1-1-4 2-3h2l1-5 1-2h2l1-5 5-7h2z" fill="#3782CD"/>
<path transform="translate(1271,730)" d="m0 0 5 1-1 3-4 6-11 3-4-1h3l-1-3 2-5 8-2z" fill="#3782CD"/>
<path transform="translate(949,775)" d="m0 0h2l1 15v18l-1 16-2 3-1-30z" fill="#3A85CF"/>
<path transform="translate(973,1064)" d="m0 0h1l1 12v35l-2-2-1-10v-31z" fill="#3984CE"/>
<path transform="translate(973,495)" d="m0 0h1l1 19v30l-2-2-1-10v-32z" fill="#3984CE"/>
<path transform="translate(949,1350)" d="m0 0h2l1 7v19l-1 16-2 2z" fill="#3984CF"/>
<path transform="translate(927,896)" d="m0 0 1 2-4 9-6 12h-2l-1 4-3-1 2-6 2-3h2l1-6 1-5h2l2-4z" fill="#3782CD"/>
<path transform="translate(950,215)" d="m0 0h1l1 7v19l-1 16-2 2v-36z" fill="#3984CF"/>
<path transform="translate(783,1014)" d="m0 0 5 2v2h-2l-2 5-1 1h-7l-3-6 8-3z" fill="#3782CD"/>
<path transform="translate(882,391)" d="m0 0 2 1-1 7-7 6-5-2 6-7z" fill="#3883CD"/>
<path transform="translate(686,1023)" d="m0 0h3l9 4v4h-11l-2-2z" fill="#3782CD"/>
<path transform="translate(418,648)" d="m0 0 4 2-1 4-5 7h-2l-2-4h2l1-5z" fill="#3984CF"/>
<path transform="translate(898,372)" d="m0 0 4 1h-2l-2 5v4l-3 4h-2l-1-2-2 1v-4l4-1v-4h2z" fill="#3883CD"/>
<path transform="translate(443,1173)" d="m0 0 3 1-1 7-4 4h-2v-5l3-4z" fill="#3883CD"/>
<path transform="translate(771,1019)" d="m0 0h3l2 4 4 2-8 2-4-1h2v-6z" fill="#468FD6"/>
<path transform="translate(433,1200)" d="m0 0 1 2-10 15h-1v-5l4-2 1-4h2l2-5z" fill="#4790D6"/>
<path transform="translate(679,457)" d="m0 0h7l2 5h-8l-2-4z" fill="#3782CD"/>
<path transform="translate(1259,735)" d="m0 0 4 2v2l4 1-3 2-8 1 3-1-1-3z" fill="#428DD5"/>
<path transform="translate(1167,741)" d="m0 0h8v5h-6l-2-2z" fill="#3782CD"/>
<path transform="translate(195,741)" d="m0 0h8v5h-7z" fill="#3782CD"/>
<path transform="translate(1198,1312)" d="m0 0 5 1 1 3h-17v-1h9v-2z" fill="#428DD5"/>
<path transform="translate(776,452)" d="m0 0h3l1 4 3 1-8 1-1-3z" fill="#428DD5"/>
<path transform="translate(800,445)" d="m0 0h4l1 3-1 2-6 1z" fill="#3883CD"/>
</svg>
