<?xml version="1.0" encoding="UTF-8"?>
<svg version="1.1" viewBox="0 0 2048 2048" width="512" height="512" xmlns="http://www.w3.org/2000/svg">
<path transform="translate(32,353)" d="m0 0h1982l10 2 8 4 7 6 7 11 2 5v1285l-7 14-5 6-10 6-8 2-11 1h-1971l-12-2-8-4-8-7-7-12-1-3v-1287l8-14 9-8 10-4z" fill="#FF4F52"/>
<path transform="translate(1023,612)" d="m0 0h6l8 7 7 14 14 43 60 180 14 41 3 9 13 1 72 1 153 1 60 1 11 4 5 7 1 9-4 7-8 8-19 14-12 9-11 8-16 12-10 7h-2v2l-10 7-18 13-13 10-11 8-12 9-19 14-11 8-18 13-28 21-22 16-1 7 10 30 8 26 9 28 15 48 10 31 14 45 10 31 11 35 2 10-2 8-6 7-4 2h-9l-12-6-8-6-10-7-22-16-10-7-11-8-13-9-11-8-15-11-13-9-15-11-13-9-15-11-13-9-15-11-13-9-11-8-16-11-11-8-5 1-19 13-22 16-16 11-12 9-16 11-12 9-16 11-12 9-16 11-12 9-17 12-11 8-17 12-11 8-14 10-18 12-10 3-7-2-5-4-4-8 1-11 13-43 10-31 16-50 19-60 13-42 10-30 8-26-16-12-14-11-22-16-16-12-14-10-19-14-16-12-11-8-16-12-14-10-21-16-10-7-19-14-28-21-7-6-4-8 2-9 5-6 9-4 91-1 205-2 4-2 14-41 14-43 48-144 16-47 5-10 7-6z" fill="#FEE060"/>
</svg>
